<svg width="258" height="23" viewBox="0 0 258 23" fill="none" xmlns="http://www.w3.org/2000/svg">
<path d="M0.6875 22L0.625 20.8125L2.40625 20.375C2.42708 20.2917 2.4375 20.0833 2.4375 19.75C2.45833 19.4167 2.46875 18.9375 2.46875 18.3125C2.48958 17.6667 2.5 16.875 2.5 15.9375L2.53125 9.34375C2.53125 8.51042 2.52083 7.8125 2.5 7.25C2.5 6.66667 2.48958 6.20833 2.46875 5.875C2.46875 5.54167 2.45833 5.34375 2.4375 5.28125L0.5 4.84375L0.59375 3.65625H10.4688C10.7812 3.65625 11.0938 3.65625 11.4062 3.65625C11.7396 3.63542 12.0833 3.61458 12.4375 3.59375C12.8125 3.57292 13.1979 3.55208 13.5938 3.53125L14.25 7.65625L12.8125 7.875L11.75 5.25C11.6042 5.20833 11.4271 5.1875 11.2188 5.1875C11.0312 5.16667 10.8229 5.15625 10.5938 5.15625H7.125C6.8125 5.15625 6.45833 5.16667 6.0625 5.1875C5.6875 5.1875 5.38542 5.20833 5.15625 5.25C5.15625 5.33333 5.14583 5.48958 5.125 5.71875C5.125 5.94792 5.125 6.23958 5.125 6.59375C5.125 6.94792 5.125 7.34375 5.125 7.78125C5.125 8.19792 5.125 8.65625 5.125 9.15625L5.15625 15.9688C5.15625 16.9479 5.15625 17.75 5.15625 18.375C5.17708 19 5.19792 19.4688 5.21875 19.7812C5.23958 20.0938 5.26042 20.2917 5.28125 20.375L7.8125 20.75L7.75 22H0.6875ZM10.625 15.8438L10.2188 13.5938C10.0938 13.5521 9.89583 13.5208 9.625 13.5C9.375 13.4792 9.07292 13.4688 8.71875 13.4688H6.09375C5.88542 13.4688 5.64583 13.4792 5.375 13.5C5.125 13.5 4.82292 13.5104 4.46875 13.5312V11.8125C4.71875 11.8333 4.97917 11.8542 5.25 11.875C5.54167 11.8958 5.82292 11.9062 6.09375 11.9062H8.71875C9.13542 11.9062 9.45833 11.8958 9.6875 11.875C9.9375 11.8333 10.1146 11.8021 10.2188 11.7812L10.625 9.65625H11.9688V15.8438H10.625ZM20.1875 22.25C19.3542 22.25 18.6146 22.0833 17.9688 21.75C17.3229 21.4167 16.8125 20.9896 16.4375 20.4688C16.0833 19.9479 15.9062 19.4062 15.9062 18.8438C15.9062 18.1354 16.1354 17.5521 16.5938 17.0938C17.0521 16.6354 17.8021 16.2396 18.8438 15.9062L23.5938 14.3125V12.7188C23.5938 12.1979 23.4375 11.7292 23.125 11.3125C22.8125 10.875 22.3958 10.5312 21.875 10.2812C21.3542 10.0312 20.7708 9.90625 20.125 9.90625C19.6042 9.90625 19.25 10.0208 19.0625 10.25C18.875 10.4583 18.7604 10.8854 18.7188 11.5312L18.6562 12.8438C17.9062 13.0104 17.2708 12.9896 16.75 12.7812C16.2292 12.5521 15.9688 12.1875 15.9688 11.6875C15.9688 11.3333 16.1146 10.9792 16.4062 10.625C16.7188 10.2708 17.125 9.9375 17.625 9.625C18.125 9.29167 18.6667 9.01042 19.25 8.78125C19.8333 8.55208 20.4062 8.39583 20.9688 8.3125C22.5104 8.3125 23.7396 8.71875 24.6562 9.53125C25.5938 10.3438 26.0729 11.4062 26.0938 12.7188L26.0312 17.9688C26.0312 18.3646 26.0417 18.75 26.0625 19.125C26.1042 19.5 26.1562 19.7812 26.2188 19.9688L28.2188 20.3438V21.3125L26.6875 21.875C26.3958 21.9792 26.125 22.0625 25.875 22.125C25.625 22.2083 25.4167 22.25 25.25 22.25C24.6042 22.25 24.1875 21.8854 24 21.1562L23.6562 19.9375H24.125C23.4375 20.7083 22.7708 21.2917 22.125 21.6875C21.5 22.0625 20.8542 22.25 20.1875 22.25ZM21.0312 20.4062C21.5104 20.4062 21.9583 20.3021 22.375 20.0938C22.7917 19.8646 23.1979 19.5208 23.5938 19.0625V15.7812L20.0938 16.7188C19.5938 16.8438 19.2292 17.0417 19 17.3125C18.7917 17.5833 18.6875 17.9271 18.6875 18.3438C18.6875 18.8646 18.9167 19.3438 19.375 19.7812C19.8542 20.1979 20.4062 20.4062 21.0312 20.4062ZM29.9062 22L29.8125 20.875L31.75 20.4062C31.7708 20.3021 31.7917 20.1146 31.8125 19.8438C31.8333 19.5729 31.8438 19.2083 31.8438 18.75C31.8646 18.2917 31.875 17.7292 31.875 17.0625L31.9062 14.625C31.9062 13.9375 31.875 13.2604 31.8125 12.5938C31.7708 11.9271 31.7188 11.3958 31.6562 11L29.6562 10.5625V9.53125L33.8438 8.375L34.2812 8.8125L34.1562 11.4375L34.25 11.4688C34.875 10.2604 35.5104 9.44792 36.1562 9.03125C36.8021 8.59375 37.4062 8.375 37.9688 8.375C38.4479 8.375 38.8438 8.5 39.1562 8.75C39.4896 8.97917 39.6562 9.33333 39.6562 9.8125C39.6562 10.3125 39.4792 10.6979 39.125 10.9688C38.7917 11.2188 38.3646 11.3438 37.8438 11.3438C37.4688 11.3438 37.1042 11.2604 36.75 11.0938C36.4167 10.9271 36.0938 10.6979 35.7812 10.4062L36.3438 10.5938C35.9479 10.8438 35.5729 11.1979 35.2188 11.6562C34.8646 12.0938 34.5417 12.6458 34.25 13.3125L34.2812 16.2188C34.3021 16.7396 34.3229 17.2812 34.3438 17.8438C34.3646 18.4062 34.3854 18.9167 34.4062 19.375C34.4271 19.8125 34.4479 20.1562 34.4688 20.4062L37.1875 20.8125L37.125 22H29.9062ZM41.25 22L41.1875 20.875L43.125 20.4062C43.1458 20.2604 43.1562 20.0729 43.1562 19.8438C43.1771 19.6146 43.1979 19.2812 43.2188 18.8438C43.2396 18.4062 43.25 17.8125 43.25 17.0625L43.2812 14.625C43.3021 14.1875 43.2917 13.7396 43.25 13.2812C43.2292 12.8229 43.1979 12.3958 43.1562 12C43.1146 11.5833 43.0729 11.25 43.0312 11L41.0312 10.5625V9.53125L45.2188 8.375L45.75 8.875L45.5938 10.5625L45.6875 10.5938C46.3333 9.78125 47 9.19792 47.6875 8.84375C48.3958 8.48958 49.1146 8.3125 49.8438 8.3125C50.5729 8.3125 51.2812 8.51042 51.9688 8.90625C52.6562 9.30208 53.2188 9.90625 53.6562 10.7188C54.1146 11.5312 54.3438 12.5729 54.3438 13.8438L54.375 17.1562C54.375 17.9062 54.3854 18.5833 54.4062 19.1875C54.4479 19.7708 54.5 20.1771 54.5625 20.4062L56.4375 20.875L56.3438 22H50.25L50.1562 20.875L51.875 20.4062C51.8958 20.2396 51.9167 20.0312 51.9375 19.7812C51.9583 19.5312 51.9688 19.2188 51.9688 18.8438C51.9896 18.4479 52 17.9583 52 17.375L51.9688 13.9375C51.9688 13.0417 51.8229 12.3229 51.5312 11.7812C51.2604 11.2396 50.8958 10.8438 50.4375 10.5938C49.9792 10.3438 49.4896 10.2188 48.9688 10.2188C48.3229 10.2188 47.7188 10.375 47.1562 10.6875C46.5938 11 46.0938 11.4896 45.6562 12.1562V16.8438C45.6562 17.8021 45.6667 18.5833 45.6875 19.1875C45.7292 19.7708 45.7708 20.1771 45.8125 20.4062L47.6562 20.875L47.5625 22H41.25ZM58.875 22L58.7812 20.875L60.5625 20.4062C60.5833 20.2396 60.5938 20.0312 60.5938 19.7812C60.6146 19.5312 60.6354 19.2188 60.6562 18.8438C60.6771 18.4479 60.6875 17.9583 60.6875 17.375V13.9688C60.6875 13.0521 60.5312 12.3229 60.2188 11.7812C59.9062 11.2396 59.5104 10.8438 59.0312 10.5938C58.5729 10.3438 58.1042 10.2188 57.625 10.2188C56.9167 10.2188 56.2604 10.3958 55.6562 10.75C55.0521 11.1042 54.5104 11.6458 54.0312 12.375L53.4375 11.2188C54.1667 10.2188 54.9375 9.48958 55.75 9.03125C56.5833 8.55208 57.4583 8.3125 58.375 8.3125C59.25 8.3125 60.0417 8.52083 60.75 8.9375C61.4583 9.35417 62.0208 9.95833 62.4375 10.75C62.8542 11.5417 63.0625 12.5 63.0625 13.625V17.1562C63.0625 17.9062 63.0729 18.5833 63.0938 19.1875C63.1354 19.7708 63.1771 20.1771 63.2188 20.4062L65.1562 20.875L65.0938 22H58.875ZM73.6562 22L73.5938 20.8125L75.375 20.375C75.3958 20.2917 75.4062 20.0833 75.4062 19.75C75.4271 19.4167 75.4375 18.9375 75.4375 18.3125C75.4583 17.6667 75.4688 16.875 75.4688 15.9375L75.5 9.34375C75.5 8.51042 75.4896 7.8125 75.4688 7.25C75.4688 6.66667 75.4583 6.20833 75.4375 5.875C75.4375 5.54167 75.4271 5.34375 75.4062 5.28125L73.4688 4.84375L73.5625 3.65625H83.4375C83.75 3.65625 84.0625 3.65625 84.375 3.65625C84.7083 3.63542 85.0521 3.61458 85.4062 3.59375C85.7812 3.57292 86.1667 3.55208 86.5625 3.53125L87.2188 7.65625L85.7812 7.875L84.7188 5.25C84.5729 5.20833 84.3958 5.1875 84.1875 5.1875C84 5.16667 83.7917 5.15625 83.5625 5.15625H80.0938C79.7812 5.15625 79.4271 5.16667 79.0312 5.1875C78.6562 5.1875 78.3542 5.20833 78.125 5.25C78.125 5.33333 78.1146 5.48958 78.0938 5.71875C78.0938 5.94792 78.0938 6.23958 78.0938 6.59375C78.0938 6.94792 78.0938 7.34375 78.0938 7.78125C78.0938 8.19792 78.0938 8.65625 78.0938 9.15625L78.125 15.9688C78.125 16.9479 78.125 17.75 78.125 18.375C78.1458 19 78.1667 19.4688 78.1875 19.7812C78.2083 20.0938 78.2292 20.2917 78.25 20.375L80.7812 20.75L80.7188 22H73.6562ZM83.5938 15.8438L83.1875 13.5938C83.0625 13.5521 82.8646 13.5208 82.5938 13.5C82.3438 13.4792 82.0417 13.4688 81.6875 13.4688H79.0625C78.8542 13.4688 78.6146 13.4792 78.3438 13.5C78.0938 13.5 77.7917 13.5104 77.4375 13.5312V11.8125C77.6875 11.8333 77.9479 11.8542 78.2188 11.875C78.5104 11.8958 78.7917 11.9062 79.0625 11.9062H81.6875C82.1042 11.9062 82.4271 11.8958 82.6562 11.875C82.9062 11.8333 83.0833 11.8021 83.1875 11.7812L83.5938 9.65625H84.9375V15.8438H83.5938ZM88.5938 22L88.5 20.875L90.4375 20.4062C90.4583 20.3021 90.4792 20.1146 90.5 19.8438C90.5208 19.5729 90.5312 19.2083 90.5312 18.75C90.5521 18.2917 90.5625 17.7292 90.5625 17.0625L90.5938 14.625C90.5938 13.9375 90.5625 13.2604 90.5 12.5938C90.4583 11.9271 90.4062 11.3958 90.3438 11L88.3438 10.5625V9.53125L92.5312 8.375L92.9688 8.8125L92.8438 11.4375L92.9375 11.4688C93.5625 10.2604 94.1979 9.44792 94.8438 9.03125C95.4896 8.59375 96.0938 8.375 96.6562 8.375C97.1354 8.375 97.5312 8.5 97.8438 8.75C98.1771 8.97917 98.3438 9.33333 98.3438 9.8125C98.3438 10.3125 98.1667 10.6979 97.8125 10.9688C97.4792 11.2188 97.0521 11.3438 96.5312 11.3438C96.1562 11.3438 95.7917 11.2604 95.4375 11.0938C95.1042 10.9271 94.7812 10.6979 94.4688 10.4062L95.0312 10.5938C94.6354 10.8438 94.2604 11.1979 93.9062 11.6562C93.5521 12.0938 93.2292 12.6458 92.9375 13.3125L92.9688 16.2188C92.9896 16.7396 93.0104 17.2812 93.0312 17.8438C93.0521 18.4062 93.0729 18.9167 93.0938 19.375C93.1146 19.8125 93.1354 20.1562 93.1562 20.4062L95.875 20.8125L95.8125 22H88.5938ZM106 22.25C104.792 22.25 103.698 21.9792 102.719 21.4375C101.76 20.8958 100.99 20.125 100.406 19.125C99.8438 18.1042 99.5625 16.9062 99.5625 15.5312C99.5625 14.0521 99.8646 12.7708 100.469 11.6875C101.073 10.6042 101.865 9.77083 102.844 9.1875C103.823 8.58333 104.875 8.29167 106 8.3125C107.625 8.33333 108.896 8.875 109.812 9.9375C110.729 11 111.188 12.5 111.188 14.4375V15H101.594V13.625H109.125L108.781 14.0312V13.375C108.781 12.1667 108.51 11.2396 107.969 10.5938C107.427 9.94792 106.688 9.625 105.75 9.625C105.167 9.625 104.604 9.80208 104.062 10.1562C103.521 10.4896 103.083 11.0104 102.75 11.7188C102.417 12.4062 102.25 13.2812 102.25 14.3438V14.7188C102.25 16.4271 102.667 17.7604 103.5 18.7188C104.354 19.6771 105.448 20.1562 106.781 20.1562C107.51 20.1562 108.167 20.0104 108.75 19.7188C109.333 19.4271 109.896 18.9583 110.438 18.3125L111.219 19.0312C110.635 20.1146 109.896 20.9271 109 21.4688C108.104 21.9896 107.104 22.25 106 22.25ZM118.438 22.25C117.667 22.25 116.896 22.1667 116.125 22C115.354 21.8125 114.698 21.5729 114.156 21.2812L114 17.9375H115.531L116.156 20.1875C116.885 20.6875 117.719 20.9375 118.656 20.9375C119.365 20.9375 119.938 20.7708 120.375 20.4375C120.812 20.0833 121.031 19.6146 121.031 19.0312C121.031 18.4896 120.833 18.0208 120.438 17.625C120.042 17.2083 119.271 16.7604 118.125 16.2812C116.646 15.6354 115.604 15.0208 115 14.4375C114.396 13.8333 114.094 13.0625 114.094 12.125C114.094 11.375 114.312 10.7188 114.75 10.1562C115.208 9.57292 115.833 9.125 116.625 8.8125C117.417 8.47917 118.333 8.3125 119.375 8.3125C119.958 8.3125 120.552 8.36458 121.156 8.46875C121.76 8.57292 122.26 8.70833 122.656 8.875L123 12.125H121.531L120.781 10C120.573 9.875 120.323 9.78125 120.031 9.71875C119.74 9.63542 119.427 9.59375 119.094 9.59375C118.365 9.59375 117.781 9.77083 117.344 10.125C116.906 10.4583 116.688 10.8958 116.688 11.4375C116.688 12.0625 116.927 12.5729 117.406 12.9688C117.885 13.3438 118.729 13.8125 119.938 14.375C121.312 15 122.271 15.6146 122.812 16.2188C123.354 16.8229 123.625 17.5521 123.625 18.4062C123.625 19.5312 123.135 20.4583 122.156 21.1875C121.177 21.8958 119.938 22.25 118.438 22.25ZM125.844 22L125.781 20.875L127.719 20.4062C127.76 20.1771 127.792 19.8333 127.812 19.375C127.833 18.8958 127.844 18.2604 127.844 17.4688C127.865 16.6771 127.875 15.7083 127.875 14.5625V10.6562C127.875 9.94792 127.865 9.1875 127.844 8.375C127.844 7.5625 127.833 6.78125 127.812 6.03125C127.812 5.26042 127.802 4.59375 127.781 4.03125C127.781 3.46875 127.771 3.09375 127.75 2.90625L125.438 2.59375L125.375 1.59375L129.781 0.3125L130.375 0.75C130.354 1.39583 130.333 2.04167 130.312 2.6875C130.292 3.33333 130.271 4.03125 130.25 4.78125C130.25 5.51042 130.24 6.34375 130.219 7.28125C130.219 8.21875 130.219 9.30208 130.219 10.5312L130.312 10.5625C131.042 9.77083 131.75 9.19792 132.438 8.84375C133.146 8.48958 133.917 8.3125 134.75 8.3125C135.521 8.3125 136.24 8.51042 136.906 8.90625C137.594 9.30208 138.146 9.90625 138.562 10.7188C139 11.5104 139.219 12.5312 139.219 13.7812V17.1562C139.219 17.9062 139.24 18.5833 139.281 19.1875C139.323 19.7708 139.365 20.1771 139.406 20.4062L141.344 20.875L141.281 22H135L134.906 20.875L136.719 20.4062C136.74 20.2396 136.76 20.0312 136.781 19.7812C136.802 19.5312 136.812 19.2188 136.812 18.8438C136.833 18.4479 136.844 17.9583 136.844 17.375V14C136.844 13.1042 136.688 12.3854 136.375 11.8438C136.083 11.2812 135.698 10.875 135.219 10.625C134.74 10.3542 134.229 10.2188 133.688 10.2188C133.021 10.2188 132.385 10.3958 131.781 10.75C131.177 11.0833 130.667 11.5521 130.25 12.1562V16.8438C130.25 17.8021 130.26 18.5938 130.281 19.2188C130.323 19.8438 130.365 20.2396 130.406 20.4062L132.312 20.875L132.25 22H125.844Z" fill="#2FB945"/>
<path d="M160.844 22L160.781 20.8125L162.688 20.375C162.729 20.2917 162.76 20.0833 162.781 19.75C162.823 19.3958 162.844 18.8958 162.844 18.25C162.865 17.6042 162.875 16.7812 162.875 15.7812V9.90625C162.875 8.88542 162.865 8.05208 162.844 7.40625C162.844 6.73958 162.823 6.23958 162.781 5.90625C162.76 5.55208 162.729 5.34375 162.688 5.28125L160.781 4.84375L160.844 3.65625H167.562L167.656 4.84375L165.719 5.28125C165.677 5.34375 165.635 5.55208 165.594 5.90625C165.573 6.23958 165.552 6.73958 165.531 7.40625C165.531 8.05208 165.531 8.88542 165.531 9.90625V15.7812C165.531 16.7812 165.531 17.6042 165.531 18.25C165.552 18.8958 165.573 19.3958 165.594 19.75C165.635 20.0833 165.677 20.2917 165.719 20.375L167.656 20.8125L167.562 22H160.844ZM149.594 22L149.5 20.8125L151.438 20.375C151.479 20.2708 151.5 20.0312 151.5 19.6562C151.521 19.2812 151.531 18.7708 151.531 18.125C151.552 17.4792 151.562 16.6979 151.562 15.7812V9.90625C151.562 8.96875 151.552 8.17708 151.531 7.53125C151.531 6.86458 151.521 6.34375 151.5 5.96875C151.5 5.59375 151.479 5.36458 151.438 5.28125L149.5 4.84375L149.594 3.65625H156.25L156.312 4.84375L154.406 5.28125C154.365 5.34375 154.323 5.55208 154.281 5.90625C154.26 6.23958 154.24 6.73958 154.219 7.40625C154.219 8.05208 154.219 8.88542 154.219 9.90625V15.7812C154.219 16.7812 154.219 17.6042 154.219 18.25C154.24 18.8958 154.26 19.3958 154.281 19.75C154.323 20.0833 154.365 20.2917 154.406 20.375L156.312 20.8125L156.25 22H149.594ZM153.844 13.5V11.6562C154.26 11.6771 154.865 11.6979 155.656 11.7188C156.469 11.7396 157.448 11.75 158.594 11.75C159.719 11.75 160.677 11.7396 161.469 11.7188C162.26 11.6979 162.844 11.6771 163.219 11.6562V13.5C162.76 13.4583 162.167 13.4271 161.438 13.4062C160.708 13.3854 159.76 13.375 158.594 13.375C157.385 13.375 156.406 13.3854 155.656 13.4062C154.906 13.4271 154.302 13.4583 153.844 13.5ZM175.188 22.25C174.354 22.25 173.615 22.0833 172.969 21.75C172.323 21.4167 171.812 20.9896 171.438 20.4688C171.083 19.9479 170.906 19.4062 170.906 18.8438C170.906 18.1354 171.135 17.5521 171.594 17.0938C172.052 16.6354 172.802 16.2396 173.844 15.9062L178.594 14.3125V12.7188C178.594 12.1979 178.438 11.7292 178.125 11.3125C177.812 10.875 177.396 10.5312 176.875 10.2812C176.354 10.0312 175.771 9.90625 175.125 9.90625C174.604 9.90625 174.25 10.0208 174.062 10.25C173.875 10.4583 173.76 10.8854 173.719 11.5312L173.656 12.8438C172.906 13.0104 172.271 12.9896 171.75 12.7812C171.229 12.5521 170.969 12.1875 170.969 11.6875C170.969 11.3333 171.115 10.9792 171.406 10.625C171.719 10.2708 172.125 9.9375 172.625 9.625C173.125 9.29167 173.667 9.01042 174.25 8.78125C174.833 8.55208 175.406 8.39583 175.969 8.3125C177.51 8.3125 178.74 8.71875 179.656 9.53125C180.594 10.3438 181.073 11.4062 181.094 12.7188L181.031 17.9688C181.031 18.3646 181.042 18.75 181.062 19.125C181.104 19.5 181.156 19.7812 181.219 19.9688L183.219 20.3438V21.3125L181.688 21.875C181.396 21.9792 181.125 22.0625 180.875 22.125C180.625 22.2083 180.417 22.25 180.25 22.25C179.604 22.25 179.188 21.8854 179 21.1562L178.656 19.9375H179.125C178.438 20.7083 177.771 21.2917 177.125 21.6875C176.5 22.0625 175.854 22.25 175.188 22.25ZM176.031 20.4062C176.51 20.4062 176.958 20.3021 177.375 20.0938C177.792 19.8646 178.198 19.5208 178.594 19.0625V15.7812L175.094 16.7188C174.594 16.8438 174.229 17.0417 174 17.3125C173.792 17.5833 173.688 17.9271 173.688 18.3438C173.688 18.8646 173.917 19.3438 174.375 19.7812C174.854 20.1979 175.406 20.4062 176.031 20.4062ZM184.906 22L184.812 20.875L186.75 20.4062C186.771 20.3021 186.792 20.1146 186.812 19.8438C186.833 19.5729 186.844 19.2083 186.844 18.75C186.865 18.2917 186.875 17.7292 186.875 17.0625L186.906 14.625C186.906 13.9375 186.875 13.2604 186.812 12.5938C186.771 11.9271 186.719 11.3958 186.656 11L184.656 10.5625V9.53125L188.844 8.375L189.281 8.8125L189.156 11.4375L189.25 11.4688C189.875 10.2604 190.51 9.44792 191.156 9.03125C191.802 8.59375 192.406 8.375 192.969 8.375C193.448 8.375 193.844 8.5 194.156 8.75C194.49 8.97917 194.656 9.33333 194.656 9.8125C194.656 10.3125 194.479 10.6979 194.125 10.9688C193.792 11.2188 193.365 11.3438 192.844 11.3438C192.469 11.3438 192.104 11.2604 191.75 11.0938C191.417 10.9271 191.094 10.6979 190.781 10.4062L191.344 10.5938C190.948 10.8438 190.573 11.1979 190.219 11.6562C189.865 12.0938 189.542 12.6458 189.25 13.3125L189.281 16.2188C189.302 16.7396 189.323 17.2812 189.344 17.8438C189.365 18.4062 189.385 18.9167 189.406 19.375C189.427 19.8125 189.448 20.1562 189.469 20.4062L192.188 20.8125L192.125 22H184.906ZM202.188 22.125L196.656 10.1562L195.188 9.6875L195.25 8.5625H201.344L201.406 9.6875L199.469 10.1562L203.75 19.6562L202.938 19.6875L206.875 10.1562L204.938 9.6875L205 8.5625H210.188L210.25 9.6875L208.781 10.1562L203.125 22.125H202.188ZM217.531 22.25C216.323 22.25 215.229 21.9792 214.25 21.4375C213.292 20.8958 212.521 20.125 211.938 19.125C211.375 18.1042 211.094 16.9062 211.094 15.5312C211.094 14.0521 211.396 12.7708 212 11.6875C212.604 10.6042 213.396 9.77083 214.375 9.1875C215.354 8.58333 216.406 8.29167 217.531 8.3125C219.156 8.33333 220.427 8.875 221.344 9.9375C222.26 11 222.719 12.5 222.719 14.4375V15H213.125V13.625H220.656L220.312 14.0312V13.375C220.312 12.1667 220.042 11.2396 219.5 10.5938C218.958 9.94792 218.219 9.625 217.281 9.625C216.698 9.625 216.135 9.80208 215.594 10.1562C215.052 10.4896 214.615 11.0104 214.281 11.7188C213.948 12.4062 213.781 13.2812 213.781 14.3438V14.7188C213.781 16.4271 214.198 17.7604 215.031 18.7188C215.885 19.6771 216.979 20.1562 218.312 20.1562C219.042 20.1562 219.698 20.0104 220.281 19.7188C220.865 19.4271 221.427 18.9583 221.969 18.3125L222.75 19.0312C222.167 20.1146 221.427 20.9271 220.531 21.4688C219.635 21.9896 218.635 22.25 217.531 22.25ZM229.969 22.25C229.198 22.25 228.427 22.1667 227.656 22C226.885 21.8125 226.229 21.5729 225.688 21.2812L225.531 17.9375H227.062L227.688 20.1875C228.417 20.6875 229.25 20.9375 230.188 20.9375C230.896 20.9375 231.469 20.7708 231.906 20.4375C232.344 20.0833 232.562 19.6146 232.562 19.0312C232.562 18.4896 232.365 18.0208 231.969 17.625C231.573 17.2083 230.802 16.7604 229.656 16.2812C228.177 15.6354 227.135 15.0208 226.531 14.4375C225.927 13.8333 225.625 13.0625 225.625 12.125C225.625 11.375 225.844 10.7188 226.281 10.1562C226.74 9.57292 227.365 9.125 228.156 8.8125C228.948 8.47917 229.865 8.3125 230.906 8.3125C231.49 8.3125 232.083 8.36458 232.688 8.46875C233.292 8.57292 233.792 8.70833 234.188 8.875L234.531 12.125H233.062L232.312 10C232.104 9.875 231.854 9.78125 231.562 9.71875C231.271 9.63542 230.958 9.59375 230.625 9.59375C229.896 9.59375 229.312 9.77083 228.875 10.125C228.438 10.4583 228.219 10.8958 228.219 11.4375C228.219 12.0625 228.458 12.5729 228.938 12.9688C229.417 13.3438 230.26 13.8125 231.469 14.375C232.844 15 233.802 15.6146 234.344 16.2188C234.885 16.8229 235.156 17.5521 235.156 18.4062C235.156 19.5312 234.667 20.4583 233.688 21.1875C232.708 21.8958 231.469 22.25 229.969 22.25ZM247.188 20.0625C246.792 20.75 246.25 21.2917 245.562 21.6875C244.875 22.0625 244.156 22.25 243.406 22.25C242.135 22.25 241.094 21.8646 240.281 21.0938C239.469 20.3229 239.062 19.1667 239.062 17.625L239.156 10.1562H236.969V9.5L241 5.84375H241.594L241.531 9.4375L241.5 17.125C241.5 18.2083 241.729 19.0104 242.188 19.5312C242.667 20.0521 243.333 20.3125 244.188 20.3125C244.667 20.3125 245.104 20.2188 245.5 20.0312C245.917 19.8438 246.292 19.5938 246.625 19.2812L247.188 20.0625ZM240.406 10.1562V8.59375H246.25V10.1562H240.406ZM252.812 22.25C252.042 22.25 251.271 22.1667 250.5 22C249.729 21.8125 249.073 21.5729 248.531 21.2812L248.375 17.9375H249.906L250.531 20.1875C251.26 20.6875 252.094 20.9375 253.031 20.9375C253.74 20.9375 254.312 20.7708 254.75 20.4375C255.188 20.0833 255.406 19.6146 255.406 19.0312C255.406 18.4896 255.208 18.0208 254.812 17.625C254.417 17.2083 253.646 16.7604 252.5 16.2812C251.021 15.6354 249.979 15.0208 249.375 14.4375C248.771 13.8333 248.469 13.0625 248.469 12.125C248.469 11.375 248.688 10.7188 249.125 10.1562C249.583 9.57292 250.208 9.125 251 8.8125C251.792 8.47917 252.708 8.3125 253.75 8.3125C254.333 8.3125 254.927 8.36458 255.531 8.46875C256.135 8.57292 256.635 8.70833 257.031 8.875L257.375 12.125H255.906L255.156 10C254.948 9.875 254.698 9.78125 254.406 9.71875C254.115 9.63542 253.802 9.59375 253.469 9.59375C252.74 9.59375 252.156 9.77083 251.719 10.125C251.281 10.4583 251.062 10.8958 251.062 11.4375C251.062 12.0625 251.302 12.5729 251.781 12.9688C252.26 13.3438 253.104 13.8125 254.312 14.375C255.688 15 256.646 15.6146 257.188 16.2188C257.729 16.8229 258 17.5521 258 18.4062C258 19.5312 257.51 20.4583 256.531 21.1875C255.552 21.8958 254.312 22.25 252.812 22.25Z" fill="white"/>
</svg>
