<svg width="20" height="20" viewBox="0 0 20 20" fill="none" xmlns="http://www.w3.org/2000/svg">
<path d="M11.6502 3.32507C11.4337 3.33152 11.2282 3.422 11.0773 3.57735L5.24398 9.41068C5.08776 9.56697 5 9.7789 5 9.99987C5 10.2209 5.08776 10.4328 5.24398 10.5891L11.0773 16.4224C11.1541 16.5024 11.2461 16.5662 11.3478 16.6102C11.4496 16.6542 11.5592 16.6774 11.67 16.6786C11.7809 16.6797 11.8909 16.6587 11.9935 16.6168C12.0962 16.5749 12.1894 16.5129 12.2678 16.4345C12.3462 16.3561 12.4082 16.2629 12.4501 16.1602C12.492 16.0576 12.513 15.9476 12.5119 15.8367C12.5107 15.7259 12.4875 15.6163 12.4435 15.5146C12.3995 15.4128 12.3357 15.3208 12.2557 15.244L7.01156 9.99987L12.2557 4.75573C12.3761 4.63868 12.4584 4.48798 12.4917 4.32338C12.525 4.15878 12.5078 3.98796 12.4423 3.83331C12.3769 3.67865 12.2662 3.54738 12.1249 3.45669C11.9835 3.366 11.8181 3.32012 11.6502 3.32507Z" fill="#2FB945"/>
</svg>
