<svg width="80" height="80" viewBox="0 0 80 80" fill="none" xmlns="http://www.w3.org/2000/svg">
<rect width="80" height="80" rx="16" fill="#2FB945" fill-opacity="0.16"/>
<g clip-path="url(#clip0_4_164)">
<path d="M34.7715 22C23.8873 22 15.0088 30.5091 15.0215 41.0215L15.043 58H16.041H45.2305C56.0959 58 64.9678 49.517 64.9805 39.0215L65.002 22H34.7715ZM34.7715 24H62.9981L62.9805 39.0195C62.9692 48.39 55.0591 56 45.2305 56H17.0391L17.0215 41.0195C17.0102 31.6339 24.9257 24 34.7715 24ZM38.9922 33.8496C38.8314 33.8442 38.6704 33.8468 38.5098 33.8574C35.1108 33.8574 33 36.2 33 40C33 43.794 35.1224 46.1387 38.5235 46.1387C41.2524 46.1387 43.2606 44.5962 43.5996 42.2832H41.7051C41.5022 42.9539 41.0751 43.5345 40.4951 43.9278C39.9152 44.321 39.2177 44.5031 38.5195 44.4434C36.3155 44.4434 34.9414 42.7389 34.9414 40.0039C34.9414 37.2689 36.3098 35.5566 38.5098 35.5566C39.2349 35.5169 39.9512 35.7311 40.5355 36.1625C41.1197 36.5938 41.5354 37.2153 41.711 37.9199H43.5996C43.4242 36.8118 42.8683 35.7994 42.0275 35.0566C41.1867 34.3138 40.1135 33.8871 38.9922 33.8496ZM51.3047 33.8652C47.7907 33.8652 45.5899 36.231 45.5899 40C45.5899 43.769 47.7538 46.1426 51.3008 46.1426C54.8478 46.1426 57 43.765 57 40C57 36.223 54.8307 33.8612 51.3047 33.8652ZM23 34V46H30.7656V44.3008H24.9004V40.6992H30.4512V39.0938H24.9004V35.6992H30.7656V34H23ZM51.3047 35.5605C53.6267 35.5605 55.0586 37.281 55.0586 40C55.0586 42.702 53.6267 44.4473 51.3047 44.4473C48.9567 44.4473 47.5313 42.7 47.5313 40C47.5313 37.277 49.0007 35.5565 51.3047 35.5605Z" fill="#2FB945"/>
</g>
<defs>
<clipPath id="clip0_4_164">
<rect width="50" height="50" fill="white" transform="translate(15 15)"/>
</clipPath>
</defs>
</svg>
