<svg width="80" height="80" viewBox="0 0 80 80" fill="none" xmlns="http://www.w3.org/2000/svg">
<rect width="80" height="80" rx="16" fill="#2FB945" fill-opacity="0.16"/>
<path d="M30 22C22.832 22 17 27.832 17 35C17 49.7617 33.6797 57.0352 39.3594 61.7656L40 62.3008L40.6406 61.7656C46.3203 57.0352 63 49.7617 63 35C63 27.832 57.168 22 50 22C45.9453 22 42.3828 23.9258 40 26.8438C37.6172 23.9258 34.0547 22 30 22ZM30 24C31.0977 24 32.1484 24.1758 33.1484 24.4766C33.0508 24.6328 33 24.8164 33 25C33 25.5508 33.4492 26 34 26C34.4727 26 34.8789 25.668 34.9805 25.207C36.6719 26.0703 38.1211 27.3477 39.168 28.9258L39.8867 30.0078C39.3828 30.0664 39 30.4922 39 31C39 31.5508 39.4492 32 40 32C40.5508 32 41 31.5508 41 31C41 30.4922 40.6172 30.0664 40.1133 30.0078L40.832 28.9258C42.0234 27.1367 43.7188 25.7266 45.7188 24.8789C45.5781 25.0547 45.5 25.2734 45.5 25.5C45.5 26.0508 45.9492 26.5 46.5 26.5C47.0508 26.5 47.5 26.0508 47.5 25.5C47.5 25.0273 47.168 24.6172 46.7031 24.5234C47.7461 24.1953 48.8477 24 50 24C50.5195 24 51.0312 24.0469 51.5312 24.1172C51.2031 24.2891 51 24.6289 51 25C51 25.5508 51.4492 26 52 26C52.5508 26 53 25.5508 53 25C53 24.7695 52.9219 24.543 52.7734 24.3672C56.8828 25.4297 60.0469 28.793 60.8125 33.0156C60.3438 33.1055 60 33.5195 60 34C60 34.5508 60.4492 35 61 35C61 36.2227 60.8672 37.3906 60.625 38.5078C60.5859 38.5039 60.543 38.5 60.5 38.5C59.9492 38.5 59.5 38.9492 59.5 39.5C59.5 39.8945 59.7305 40.25 60.0938 40.4102C59.793 41.2852 59.4219 42.125 58.9961 42.9336C58.9609 42.4062 58.5234 42 58 42C57.4492 42 57 42.4492 57 43C57 43.5508 57.4492 44 58 44C58.1602 44 58.3125 43.9609 58.4531 43.8906C55.7188 48.4375 51.2031 51.9492 46.9883 54.8789C46.9297 54.3789 46.5039 54 46 54C45.4492 54 45 54.4492 45 55C45 55.3711 45.207 55.7109 45.5312 55.8828C44.8672 56.3359 44.2266 56.7734 43.5977 57.2031C43.4258 57.0703 43.2148 57 43 57C42.4492 57 42 57.4492 42 58C42 58.0938 42.0156 58.1875 42.043 58.2812C41.3125 58.793 40.6133 59.293 40 59.7773C39.3867 59.293 38.6875 58.793 37.957 58.2812C37.9844 58.1875 38 58.0938 38 58C38 57.4492 37.5508 57 37 57C36.7852 57 36.5742 57.0703 36.4023 57.1992C35.7734 56.7734 35.1328 56.3359 34.4688 55.8828C34.793 55.7109 35 55.3711 35 55C35 54.4492 34.5508 54 34 54C33.4961 54 33.0703 54.375 33.0078 54.875C28.7969 51.9492 24.2812 48.4375 21.5469 43.8906C21.6875 43.9609 21.8438 44 22 44C22.5508 44 23 43.5508 23 43C23 42.4492 22.5508 42 22 42C21.4766 42 21.0391 42.4062 21 42.9258C20.5781 42.1211 20.207 41.2852 19.9062 40.4141C19.9688 40.2852 20 40.1445 20 40C20 39.6562 19.8242 39.3359 19.5312 39.1523C19.1914 37.8438 19 36.4648 19 35C19.5508 35 20 34.5508 20 34C20 33.5195 19.6562 33.1055 19.1875 33.0156C19.9531 28.793 23.1172 25.4258 27.2305 24.3633C27.082 24.543 27 24.7656 27 25C27 25.5508 27.4492 26 28 26C28.5508 26 29 25.5508 29 25C29 24.6289 28.7969 24.2891 28.4688 24.1172C28.9688 24.0469 29.4805 24 30 24ZM25 27C24.4492 27 24 27.4492 24 28C24 28.5508 24.4492 29 25 29C25.5508 29 26 28.5508 26 28C26 27.4492 25.5508 27 25 27ZM31 27C30.4492 27 30 27.4492 30 28C30 28.5508 30.4492 29 31 29C31.5508 29 32 28.5508 32 28C32 27.4492 31.5508 27 31 27ZM37 27C36.4492 27 36 27.4492 36 28C36 28.5508 36.4492 29 37 29C37.5508 29 38 28.5508 38 28C38 27.4492 37.5508 27 37 27ZM49 27C48.4492 27 48 27.4492 48 28C48 28.5508 48.4492 29 49 29C49.5508 29 50 28.5508 50 28C50 27.4492 49.5508 27 49 27ZM55 27C54.4492 27 54 27.4492 54 28C54 28.5508 54.4492 29 55 29C55.5508 29 56 28.5508 56 28C56 27.4492 55.5508 27 55 27ZM43.5 27.5C42.9492 27.5 42.5 27.9492 42.5 28.5C42.5 29.0508 42.9492 29.5 43.5 29.5C44.0508 29.5 44.5 29.0508 44.5 28.5C44.5 27.9492 44.0508 27.5 43.5 27.5ZM22 30C21.4492 30 21 30.4492 21 31C21 31.5508 21.4492 32 22 32C22.5508 32 23 31.5508 23 31C23 30.4492 22.5508 30 22 30ZM28 30C27.4492 30 27 30.4492 27 31C27 31.5508 27.4492 32 28 32C28.5508 32 29 31.5508 29 31C29 30.4492 28.5508 30 28 30ZM34 30C33.4492 30 33 30.4492 33 31C33 31.5508 33.4492 32 34 32C34.5508 32 35 31.5508 35 31C35 30.4492 34.5508 30 34 30ZM46 30C45.4492 30 45 30.4492 45 31C45 31.5508 45.4492 32 46 32C46.5508 32 47 31.5508 47 31C47 30.4492 46.5508 30 46 30ZM52 30C51.4492 30 51 30.4492 51 31C51 31.5508 51.4492 32 52 32C52.5508 32 53 31.5508 53 31C53 30.4492 52.5508 30 52 30ZM58 30C57.4492 30 57 30.4492 57 31C57 31.5508 57.4492 32 58 32C58.5508 32 59 31.5508 59 31C59 30.4492 58.5508 30 58 30ZM25 33C24.4492 33 24 33.4492 24 34C24 34.5508 24.4492 35 25 35C25.5508 35 26 34.5508 26 34C26 33.4492 25.5508 33 25 33ZM31 33C30.4492 33 30 33.4492 30 34C30 34.5508 30.4492 35 31 35C31.5508 35 32 34.5508 32 34C32 33.4492 31.5508 33 31 33ZM37 33C36.4492 33 36 33.4492 36 34C36 34.5508 36.4492 35 37 35C37.5508 35 38 34.5508 38 34C38 33.4492 37.5508 33 37 33ZM43 33C42.4492 33 42 33.4492 42 34C42 34.5508 42.4492 35 43 35C43.5508 35 44 34.5508 44 34C44 33.4492 43.5508 33 43 33ZM49 33C48.4492 33 48 33.4492 48 34C48 34.5508 48.4492 35 49 35C49.5508 35 50 34.5508 50 34C50 33.4492 49.5508 33 49 33ZM55 33C54.4492 33 54 33.4492 54 34C54 34.5508 54.4492 35 55 35C55.5508 35 56 34.5508 56 34C56 33.4492 55.5508 33 55 33ZM22 36C21.4492 36 21 36.4492 21 37C21 37.5508 21.4492 38 22 38C22.5508 38 23 37.5508 23 37C23 36.4492 22.5508 36 22 36ZM28 36C27.4492 36 27 36.4492 27 37C27 37.5508 27.4492 38 28 38C28.5508 38 29 37.5508 29 37C29 36.4492 28.5508 36 28 36ZM34 36C33.4492 36 33 36.4492 33 37C33 37.5508 33.4492 38 34 38C34.5508 38 35 37.5508 35 37C35 36.4492 34.5508 36 34 36ZM40 36C39.4492 36 39 36.4492 39 37C39 37.5508 39.4492 38 40 38C40.5508 38 41 37.5508 41 37C41 36.4492 40.5508 36 40 36ZM46 36C45.4492 36 45 36.4492 45 37C45 37.5508 45.4492 38 46 38C46.5508 38 47 37.5508 47 37C47 36.4492 46.5508 36 46 36ZM52 36C51.4492 36 51 36.4492 51 37C51 37.5508 51.4492 38 52 38C52.5508 38 53 37.5508 53 37C53 36.4492 52.5508 36 52 36ZM58 36C57.4492 36 57 36.4492 57 37C57 37.5508 57.4492 38 58 38C58.5508 38 59 37.5508 59 37C59 36.4492 58.5508 36 58 36ZM25 39C24.4492 39 24 39.4492 24 40C24 40.5508 24.4492 41 25 41C25.5508 41 26 40.5508 26 40C26 39.4492 25.5508 39 25 39ZM31 39C30.4492 39 30 39.4492 30 40C30 40.5508 30.4492 41 31 41C31.5508 41 32 40.5508 32 40C32 39.4492 31.5508 39 31 39ZM37 39C36.4492 39 36 39.4492 36 40C36 40.5508 36.4492 41 37 41C37.5508 41 38 40.5508 38 40C38 39.4492 37.5508 39 37 39ZM43 39C42.4492 39 42 39.4492 42 40C42 40.5508 42.4492 41 43 41C43.5508 41 44 40.5508 44 40C44 39.4492 43.5508 39 43 39ZM49 39C48.4492 39 48 39.4492 48 40C48 40.5508 48.4492 41 49 41C49.5508 41 50 40.5508 50 40C50 39.4492 49.5508 39 49 39ZM55 39C54.4492 39 54 39.4492 54 40C54 40.5508 54.4492 41 55 41C55.5508 41 56 40.5508 56 40C56 39.4492 55.5508 39 55 39ZM28 42C27.4492 42 27 42.4492 27 43C27 43.5508 27.4492 44 28 44C28.5508 44 29 43.5508 29 43C29 42.4492 28.5508 42 28 42ZM34 42C33.4492 42 33 42.4492 33 43C33 43.5508 33.4492 44 34 44C34.5508 44 35 43.5508 35 43C35 42.4492 34.5508 42 34 42ZM40 42C39.4492 42 39 42.4492 39 43C39 43.5508 39.4492 44 40 44C40.5508 44 41 43.5508 41 43C41 42.4492 40.5508 42 40 42ZM46 42C45.4492 42 45 42.4492 45 43C45 43.5508 45.4492 44 46 44C46.5508 44 47 43.5508 47 43C47 42.4492 46.5508 42 46 42ZM52 42C51.4492 42 51 42.4492 51 43C51 43.5508 51.4492 44 52 44C52.5508 44 53 43.5508 53 43C53 42.4492 52.5508 42 52 42ZM25 45C24.4492 45 24 45.4492 24 46C24 46.5508 24.4492 47 25 47C25.5508 47 26 46.5508 26 46C26 45.4492 25.5508 45 25 45ZM31 45C30.4492 45 30 45.4492 30 46C30 46.5508 30.4492 47 31 47C31.5508 47 32 46.5508 32 46C32 45.4492 31.5508 45 31 45ZM37 45C36.4492 45 36 45.4492 36 46C36 46.5508 36.4492 47 37 47C37.5508 47 38 46.5508 38 46C38 45.4492 37.5508 45 37 45ZM43 45C42.4492 45 42 45.4492 42 46C42 46.5508 42.4492 47 43 47C43.5508 47 44 46.5508 44 46C44 45.4492 43.5508 45 43 45ZM49 45C48.4492 45 48 45.4492 48 46C48 46.5508 48.4492 47 49 47C49.5508 47 50 46.5508 50 46C50 45.4492 49.5508 45 49 45ZM55 45C54.4492 45 54 45.4492 54 46C54 46.5508 54.4492 47 55 47C55.5508 47 56 46.5508 56 46C56 45.4492 55.5508 45 55 45ZM28 48C27.4492 48 27 48.4492 27 49C27 49.5508 27.4492 50 28 50C28.5508 50 29 49.5508 29 49C29 48.4492 28.5508 48 28 48ZM34 48C33.4492 48 33 48.4492 33 49C33 49.5508 33.4492 50 34 50C34.5508 50 35 49.5508 35 49C35 48.4492 34.5508 48 34 48ZM40 48C39.4492 48 39 48.4492 39 49C39 49.5508 39.4492 50 40 50C40.5508 50 41 49.5508 41 49C41 48.4492 40.5508 48 40 48ZM46 48C45.4492 48 45 48.4492 45 49C45 49.5508 45.4492 50 46 50C46.5508 50 47 49.5508 47 49C47 48.4492 46.5508 48 46 48ZM52 48C51.4492 48 51 48.4492 51 49C51 49.5508 51.4492 50 52 50C52.5508 50 53 49.5508 53 49C53 48.4492 52.5508 48 52 48ZM31 51C30.4492 51 30 51.4492 30 52C30 52.5508 30.4492 53 31 53C31.5508 53 32 52.5508 32 52C32 51.4492 31.5508 51 31 51ZM37 51C36.4492 51 36 51.4492 36 52C36 52.5508 36.4492 53 37 53C37.5508 53 38 52.5508 38 52C38 51.4492 37.5508 51 37 51ZM43 51C42.4492 51 42 51.4492 42 52C42 52.5508 42.4492 53 43 53C43.5508 53 44 52.5508 44 52C44 51.4492 43.5508 51 43 51ZM49 51C48.4492 51 48 51.4492 48 52C48 52.5508 48.4492 53 49 53C49.5508 53 50 52.5508 50 52C50 51.4492 49.5508 51 49 51ZM40 54C39.4492 54 39 54.4492 39 55C39 55.5508 39.4492 56 40 56C40.5508 56 41 55.5508 41 55C41 54.4492 40.5508 54 40 54Z" fill="#2FB945"/>
</svg>
