<svg width="80" height="80" viewBox="0 0 80 80" fill="none" xmlns="http://www.w3.org/2000/svg">
<rect width="80" height="80" rx="16" fill="#2FB945" fill-opacity="0.16"/>
<path d="M40 17C36.655 17 33.7348 18.9008 32.2598 21.6758C31.5288 21.4838 30.7783 21.3887 30.0273 21.3887C27.8083 21.3887 25.5912 22.2252 23.9082 23.9082C21.6552 26.1612 20.9178 29.3708 21.6758 32.2598C18.9018 33.7348 17 36.655 17 40C17 43.345 18.9008 46.2652 21.6758 47.7402C20.9178 50.6282 21.6572 53.8388 23.9102 56.0918C25.5932 57.7748 27.8103 58.6113 30.0293 58.6113C30.7803 58.6113 31.5317 58.5162 32.2617 58.3242C33.7357 61.0992 36.655 63 40 63C43.345 63 46.2652 61.0992 47.7402 58.3242C48.4712 58.5162 49.2217 58.6113 49.9727 58.6113C52.1917 58.6113 54.4088 57.7748 56.0918 56.0918C58.3448 53.8388 59.0822 50.6292 58.3242 47.7402C61.0982 46.2652 63 43.345 63 40C63 36.655 61.0992 33.7348 58.3242 32.2598C59.0822 29.3718 58.3428 26.1612 56.0898 23.9082C54.4068 22.2252 52.1897 21.3887 49.9707 21.3887C49.2197 21.3887 48.4683 21.4838 47.7383 21.6758C46.2643 18.9008 43.345 17 40 17ZM40 19.1895C42.428 19.1895 44.6546 20.5351 45.8066 22.7031L46.6191 24.2344L48.2969 23.7949C48.8419 23.6519 49.4057 23.5781 49.9727 23.5781C51.7077 23.5781 53.331 24.246 54.543 25.457C56.157 27.071 56.795 29.4641 56.207 31.7031L55.7676 33.3809L57.2969 34.1934C59.4639 35.3454 60.8105 37.572 60.8105 40C60.8105 42.428 59.4649 44.6546 57.2969 45.8066L55.7676 46.6191L56.207 48.2969C56.794 50.5359 56.157 52.929 54.543 54.543C53.331 55.755 51.7067 56.4219 49.9727 56.4219C49.4067 56.4219 48.8429 56.3491 48.2969 56.2051L46.6191 55.7656L45.8066 57.2969C44.6546 59.4639 42.428 60.8105 40 60.8105C37.572 60.8105 35.3454 59.4649 34.1934 57.2969L33.3809 55.7656L31.7031 56.2051C31.1581 56.3481 30.5943 56.4219 30.0273 56.4219C28.2923 56.4219 26.669 55.754 25.457 54.543C23.843 52.929 23.205 50.5359 23.793 48.2969L24.2324 46.6191L22.7031 45.8066C20.5371 44.6546 19.1895 42.428 19.1895 40C19.1895 37.572 20.5351 35.3454 22.7031 34.1934L24.2344 33.3809L23.7949 31.7031C23.2079 29.4641 23.843 27.071 25.457 25.457C26.669 24.245 28.2933 23.5781 30.0273 23.5781C30.5933 23.5781 31.1571 23.6509 31.7031 23.7949L33.3809 24.2344L34.1953 22.7031C35.3463 20.5361 37.572 19.1895 40 19.1895ZM49.1504 32.7227L36.7148 45.1562L30.8496 39.293L29.4355 40.707L36.7148 47.9844L50.5645 34.1367L49.1504 32.7227Z" fill="#2FB945"/>
</svg>
