<svg width="80" height="80" viewBox="0 0 80 80" fill="none" xmlns="http://www.w3.org/2000/svg">
<rect width="80" height="80" rx="16" fill="#2FB945" fill-opacity="0.16"/>
<path d="M20 19C19.447 19 19 19.447 19 20V60C19 60.553 19.447 61 20 61H44.6172C44.2512 60.367 43.9453 59.699 43.6973 59H21V21H59V43.6973C59.699 43.9443 60.367 44.2512 61 44.6172V20C61 19.447 60.553 19 60 19H20ZM36 24C34.3545 24 33 25.3545 33 27C33 28.6455 34.3545 30 36 30H44C45.6455 30 47 28.6455 47 27C47 25.3545 45.6455 24 44 24H36ZM36 26H44C44.5545 26 45 26.4455 45 27C45 27.5545 44.5545 28 44 28H36C35.4455 28 35 27.5545 35 27C35 26.4455 35.4455 26 36 26ZM55 45C49.5 45 45 49.5 45 55C45 60.5 49.5 65 55 65C60.5 65 65 60.5 65 55C65 49.5 60.5 45 55 45ZM55 47C59.4 47 63 50.6 63 55C63 59.4 59.4 63 55 63C50.6 63 47 59.4 47 55C47 50.6 50.6 47 55 47ZM59.3008 50.4004L53.9004 56.6992L50.5996 54.1992L49.4004 55.8008L54.0996 59.4004L60.8008 51.6992L59.3008 50.4004Z" fill="#2FB945"/>
</svg>
