<svg width="80" height="80" viewBox="0 0 80 80" fill="none" xmlns="http://www.w3.org/2000/svg">
<rect width="80" height="80" rx="16" fill="#2FB945" fill-opacity="0.16"/>
<g clip-path="url(#clip0_1_882)">
<path d="M54.7852 18.8027C54.2773 18.8111 53.7794 18.9177 53.3145 19.1406C52.8136 19.3808 52.3845 19.7529 51.9981 20.2051C51.6121 19.7588 51.1826 19.3953 50.6856 19.1621C49.76 18.7278 48.7215 18.7511 47.7227 19.039C47.5965 19.0754 47.4786 19.1364 47.376 19.2183C47.2733 19.3002 47.1878 19.4016 47.1243 19.5166C47.0608 19.6316 47.0205 19.7579 47.0059 19.8885C46.9912 20.019 47.0024 20.1512 47.0389 20.2774C47.0753 20.4036 47.1362 20.5214 47.2182 20.6241C47.3001 20.7267 47.4015 20.8122 47.5165 20.8757C47.6315 20.9392 47.7579 20.9794 47.8885 20.994C48.019 21.0086 48.1512 20.9974 48.2774 20.9609C48.9745 20.7599 49.4355 20.7847 49.836 20.9726C50.2364 21.1606 50.6687 21.5736 51.1055 22.4473C51.1885 22.6134 51.3162 22.7531 51.4742 22.8508C51.6322 22.9484 51.8143 23.0001 52 23.0001C52.1858 23.0001 52.3678 22.9484 52.5258 22.8508C52.6838 22.7531 52.8115 22.6134 52.8945 22.4473C53.332 21.5724 53.778 21.136 54.1797 20.9433C54.5814 20.7507 55.0177 20.7282 55.6856 20.9492C55.8109 20.9932 55.9437 21.0117 56.0763 21.0038C56.2088 20.9958 56.3385 20.9616 56.4577 20.903C56.5768 20.8444 56.6832 20.7627 56.7704 20.6626C56.8577 20.5625 56.9241 20.446 56.9659 20.32C57.0077 20.1939 57.0239 20.0608 57.0137 19.9284C57.0034 19.796 56.9669 19.6669 56.9063 19.5488C56.8456 19.4306 56.7621 19.3258 56.6605 19.2402C56.5589 19.1547 56.4412 19.0903 56.3145 19.0508C55.8114 18.8843 55.293 18.7943 54.7852 18.8027ZM24.5 22C22.1739 22 20.3057 23.8131 20.084 26.084C18.3651 26.3006 17 27.7259 17 29.5C17 31.4212 18.5788 33 20.5 33H29C31.1973 33 33 31.1973 33 29C33 26.8027 31.1973 25 29 25C28.8797 25 28.7857 25.0494 28.6699 25.0605C28.0611 23.3024 26.4603 22 24.5 22ZM41.0293 22C40.8429 21.9947 40.6586 22.0416 40.4975 22.1355C40.3363 22.2294 40.2046 22.3664 40.1172 22.5312L31.1172 39.5312C31.0592 39.6329 31.0196 39.744 31 39.8594C30.3335 39.7804 29.6636 39.7376 28.9942 39.7519C27.4304 39.7855 25.8722 40.0736 24.3828 40.6152L24.3711 40.6191L15.6328 44.0703C15.5066 44.1155 15.3907 44.1856 15.2922 44.2764C15.1936 44.3673 15.1142 44.477 15.0589 44.5991C15.0036 44.7212 14.9733 44.8532 14.97 44.9872C14.9667 45.1213 14.9904 45.2546 15.0396 45.3793C15.0889 45.504 15.1627 45.6175 15.2567 45.7131C15.3507 45.8087 15.463 45.8844 15.5868 45.9358C15.7107 45.9871 15.8436 46.013 15.9776 46.012C16.1117 46.0109 16.2442 45.9829 16.3672 45.9297L25.0684 42.4941C27.6312 41.5626 30.4303 41.5045 33.0313 42.3242L44.5078 46.9453L44.543 46.957C45.7564 47.3405 46.4081 48.6155 46.0059 49.8223C45.6304 50.9487 44.4709 51.5853 43.3184 51.2988L34.2422 49.0293C34.1147 48.9974 33.9822 48.991 33.8522 49.0104C33.7223 49.0298 33.5974 49.0746 33.4847 49.1422C33.3721 49.2099 33.2739 49.299 33.1957 49.4046C33.1175 49.5103 33.0609 49.6302 33.0291 49.7577C32.9972 49.8852 32.9909 50.0177 33.0103 50.1477C33.0297 50.2777 33.0745 50.4025 33.1422 50.5152C33.2099 50.6278 33.2991 50.726 33.4047 50.8042C33.5103 50.8823 33.6303 50.9389 33.7578 50.9707L42.832 53.2383C44.6848 53.7006 46.5863 52.8532 47.5254 51.2656L59.9551 45.3926L59.9981 45.3672C60.9258 44.8109 62.0984 45.1046 62.6543 46.0312C63.2049 46.9491 62.9213 48.1088 62.0117 48.6719L45.0117 58.5781L45 58.5859C43.6752 59.4061 42.045 59.5547 40.5938 58.9902L29.3867 54.6328C26.5604 53.5338 23.3891 53.7692 20.7559 55.2734L17.5039 57.1308C17.3898 57.196 17.2895 57.283 17.209 57.3868C17.1285 57.4907 17.0692 57.6094 17.0345 57.7362C16.9998 57.863 16.9905 57.9954 17.007 58.1258C17.0235 58.2562 17.0656 58.382 17.1307 58.4962C17.1959 58.6103 17.2829 58.7105 17.3868 58.791C17.4906 58.8716 17.6094 58.9308 17.7362 58.9655C17.8629 59.0001 17.9953 59.0094 18.1257 58.9929C18.2561 58.9764 18.382 58.9343 18.4961 58.8691L21.7461 57.0098C23.8569 55.804 26.3965 55.6151 28.6621 56.4961L39.8692 60.8555C41.9039 61.647 44.1956 61.4369 46.0527 60.2871L63.0547 50.3808L63.0645 50.373C64.8849 49.2461 65.4706 46.8381 64.3692 45.0019C63.5351 43.6119 61.9563 42.9218 60.4375 43.1328C59.9313 43.2031 59.4323 43.3724 58.9688 43.6504L59.0567 43.6055L56 45.0488V42.7969C58.8104 42.3015 61 39.9476 61 37C61 33.6981 58.3019 31 55 31C53.4927 31 52.2071 31.4709 51.2305 32.2265L47.8945 25.5527C47.8311 25.4259 47.7414 25.314 47.6315 25.2245C47.5215 25.135 47.3938 25.0699 47.2567 25.0335C47.1197 24.9971 46.9764 24.9903 46.8366 25.0134C46.6967 25.0366 46.5633 25.0893 46.4453 25.168L44.3184 26.5859L41.8574 22.4863C41.7713 22.3423 41.6503 22.2222 41.5056 22.1372C41.3608 22.0523 41.1971 22.0051 41.0293 22ZM24.5 24C25.8153 24 26.859 24.9952 26.9727 26.2812C26.9861 26.4341 27.0346 26.5819 27.1143 26.7131C27.1941 26.8442 27.3029 26.9553 27.4325 27.0376C27.562 27.12 27.7088 27.1714 27.8614 27.1879C28.014 27.2044 28.1684 27.1855 28.3125 27.1328C28.5488 27.0465 28.7734 27 29 27C30.1167 27 31 27.8833 31 29C31 30.1167 30.1167 31 29 31H20.5C19.6592 31 19 30.3408 19 29.5C19 28.6592 19.6592 28 20.5 28C20.6017 28 20.7094 28.0146 20.834 28.043C20.994 28.0797 21.1605 28.0766 21.3189 28.0337C21.4774 27.9909 21.6229 27.9098 21.7425 27.7974C21.8622 27.6851 21.9524 27.5451 22.0051 27.3896C22.0579 27.2342 22.0715 27.0682 22.0449 26.9062C22.0169 26.7333 22 26.6012 22 26.5C22 25.1074 23.1075 24 24.5 24ZM41.0547 25.0332L43.1426 28.5137C43.2122 28.6297 43.3046 28.7305 43.4142 28.8098C43.5239 28.8892 43.6485 28.9454 43.7805 28.9752C43.9125 29.0049 44.0492 29.0076 44.1823 28.983C44.3154 28.9584 44.4421 28.907 44.5547 28.832L46.6113 27.4609L49.8125 33.8633C49.2658 34.8213 49 35.9139 49 37C49 38.4722 49.4854 39.9579 50.502 41.1015C51.322 42.0241 52.5698 42.5745 54 42.7988V45.9941L48.1035 48.7793C47.9677 47.1047 46.8426 45.5868 45.1465 45.0508L45.2188 45.0762L33.6758 40.4277L33.6387 40.416C33.4281 40.3495 33.2147 40.2987 33.002 40.2422L36.8008 33.0683L39.4453 34.832C39.6377 34.9602 39.8685 35.0178 40.0985 34.995C40.3286 34.9722 40.5436 34.8705 40.707 34.707L42.127 33.2871L44.4453 34.832C44.5545 34.9073 44.6776 34.9601 44.8075 34.9874C44.9373 35.0147 45.0712 35.0159 45.2015 34.9909C45.3318 34.9659 45.4558 34.9152 45.5663 34.8418C45.6768 34.7684 45.7716 34.6738 45.8452 34.5634C45.9188 34.4531 45.9697 34.3292 45.9949 34.1989C46.0201 34.0687 46.0192 33.9347 45.9922 33.8049C45.9651 33.675 45.9125 33.5518 45.8374 33.4425C45.7623 33.3331 45.6662 33.2398 45.5547 33.168L42.5547 31.168C42.3623 31.0398 42.1315 30.9822 41.9015 31.005C41.6715 31.0278 41.4564 31.1295 41.293 31.293L39.8731 32.7129L37.7402 31.293L41.0547 25.0332ZM55 33C57.221 33 59 34.779 59 37C59 38.8657 57.7182 40.3514 56 40.8008V37C56.0019 36.8675 55.9774 36.7359 55.928 36.6129C55.8786 36.49 55.8052 36.3781 55.7122 36.2837C55.6191 36.1893 55.5083 36.1144 55.386 36.0632C55.2637 36.0121 55.1325 35.9857 55 35.9857C54.8675 35.9857 54.7363 36.0121 54.614 36.0632C54.4918 36.1144 54.3809 36.1893 54.2879 36.2837C54.1948 36.3781 54.1215 36.49 54.072 36.6129C54.0226 36.7359 53.9981 36.8675 54 37V40.8105C53.1619 40.6256 52.4665 40.3004 51.9981 39.7734C51.348 39.0421 51 38.0278 51 37C51 36.2276 51.1968 35.4631 51.5703 34.8203C51.7575 34.6902 51.8947 34.5 51.959 34.2812C51.9735 34.2643 51.9832 34.2432 51.9981 34.2265C52.6481 33.4952 53.5834 33 55 33Z" fill="#2FB945"/>
</g>
<defs>
<clipPath id="clip0_1_882">
<rect width="50" height="50" fill="white" transform="translate(15 15)"/>
</clipPath>
</defs>
</svg>
