<svg width="80" height="80" viewBox="0 0 80 80" fill="none" xmlns="http://www.w3.org/2000/svg">
<rect width="80" height="80" rx="16" fill="#2FB945" fill-opacity="0.16"/>
<g clip-path="url(#clip0_1_810)">
<path d="M48.7501 15C45.8438 15.0898 41.3868 15.6601 38.8751 18.75C37.9493 19.8906 37.3868 21.1211 37.1563 22.2812C36.9258 23.4414 36.9962 24.5976 37.6563 25.4687C38.4219 26.4765 39.5352 26.8008 40.6251 26.7812C40.168 28.5234 39.9337 30.4062 39.8126 32.375C39.5665 36.3476 39.8008 40.6445 39.9063 44.75C39.3087 43.5429 38.5782 42.4297 37.6876 41.4062C37.2891 40.9492 36.8321 40.5117 36.3751 40.0937C37.3087 39.289 37.8985 38.0859 37.6876 36.625C37.1993 33.2187 33.0547 29.0664 25.4063 30.1875C22.5352 30.6093 19.1915 32.0195 15.5001 34.1875C15.1876 34.375 15.0001 34.7187 15.0157 35.082C15.0274 35.4453 15.2383 35.7734 15.5626 35.9375C16.086 36.1875 16.7462 37.0468 17.4063 38.2812C18.0665 39.5156 18.7579 41.0508 19.6251 42.5625C20.4922 44.0742 21.5469 45.582 23.0626 46.625C24.5782 47.6679 26.5469 48.2187 28.9376 47.875C31.7344 47.4726 33.793 46.1445 34.9688 44.5625C35.4766 43.8789 35.7696 43.164 35.9063 42.4375C35.9962 42.5351 36.1016 42.6211 36.1876 42.7187C38.7344 45.6484 39.8672 49.5508 39.9688 54.3125C37.8985 54.8164 36.0626 55.914 34.6251 57.4062C33.6055 56.5937 32.4102 56 31.0001 56C29.3008 56 27.8751 56.8281 26.7813 57.9687C25.9727 57.4101 25.0547 57 24.0001 57C22.4063 57 21.0977 57.8633 20.1876 59.0312C20.1172 59.0273 20.0821 59 20.0001 59C17.2501 59 15.0001 61.25 15.0001 64C14.9962 64.3593 15.1837 64.6953 15.4962 64.8789C15.8087 65.0586 16.1915 65.0586 16.504 64.8789C16.8165 64.6953 17.004 64.3593 17.0001 64C17.0001 62.332 18.3321 61 20.0001 61C20.0704 61 20.2071 61.0039 20.4063 61.0312C20.8087 61.082 21.2071 60.8867 21.4063 60.5312C21.9219 59.6093 22.8712 59 24.0001 59C24.8438 59 25.6094 59.3476 26.1563 59.9062C26.3672 60.1133 26.6641 60.2187 26.9571 60.1875C27.254 60.1562 27.5235 59.9961 27.6876 59.75C28.4063 58.6875 29.6133 58 31.0001 58C32.1954 58 33.2579 58.5351 34.0001 59.375C34.1954 59.5859 34.4688 59.7031 34.7579 59.6992C35.043 59.6914 35.3165 59.5625 35.5001 59.3437C37.1524 57.3086 39.6719 56 42.5001 56C44.0821 56 45.5508 56.4062 46.8438 57.125C47.1954 57.3164 47.6251 57.2773 47.9376 57.0312C48.7852 56.3789 49.8477 56 51.0001 56C53.3477 56 55.2969 57.6172 55.8438 59.7812C55.918 60.0742 56.1172 60.3164 56.3907 60.4453C56.6641 60.5703 56.9805 60.5703 57.2501 60.4375C57.7969 60.1679 58.379 60 59.0001 60C61.2188 60 63.0001 61.7812 63.0001 64C62.9962 64.3593 63.1837 64.6953 63.4962 64.8789C63.8087 65.0586 64.1915 65.0586 64.504 64.8789C64.8165 64.6953 65.004 64.3593 65.0001 64C65.0001 60.6992 62.3008 58 59.0001 58C58.4102 58 57.9063 58.2148 57.3751 58.375C56.3243 55.8359 53.9102 54 51.0001 54C49.6212 54 48.3633 54.4648 47.2813 55.1562C45.8243 54.4453 44.2266 54 42.5001 54C42.3204 54 42.1446 54.0234 41.9688 54.0312C41.9493 53.4062 41.8985 52.789 41.8438 52.1875C41.8672 52.0976 41.879 52 41.8751 51.9062C41.8751 48.9297 42.6172 46.832 44.2813 45.5625C44.5899 45.3281 44.9493 45.1211 45.3438 44.9375C45.2813 45.4687 45.3321 46.0273 45.5001 46.5937C45.9376 48.0625 47.2071 49.5039 49.2813 49.875C51.8633 50.3359 53.961 49.25 55.4688 48.0312C56.2227 47.4218 56.8555 46.7734 57.3751 46.25C57.8946 45.7265 58.3633 45.3281 58.5001 45.25C58.9688 44.9765 59.1329 44.3828 58.8751 43.9062C58.2501 42.7148 57.336 41.25 55.8751 40.0625C54.4141 38.875 52.4102 38 49.7813 38C48.5391 38 47.4883 38.2109 46.6563 38.6562C45.8243 39.1015 45.211 39.8554 45.0626 40.75C44.9297 41.5547 45.1094 42.2031 45.3751 42.75C44.5079 43.0468 43.7305 43.4609 43.0626 43.9687C42.6251 44.3008 42.2462 44.6836 41.9063 45.0937C41.8047 40.8125 41.5391 36.4218 41.7813 32.5C41.8555 31.3047 42.0001 30.1758 42.1876 29.0937C42.3399 29.207 42.4844 29.3125 42.6563 29.4062C44.1133 30.1836 46.1837 30.2578 47.9376 28.875C52.3243 25.4101 52.0001 18.9492 52.0001 16C52.0001 15.4492 51.5508 15 51.0001 15C50.504 15 49.7188 14.9687 48.7501 15ZM49.9376 17.0937C49.918 20.2383 49.7579 24.8828 46.7188 27.2812C45.5626 28.1914 44.4688 28.0898 43.5938 27.625C43.1797 27.4062 42.8829 27.1054 42.6876 26.8125C42.8829 26.1523 43.1094 25.5156 43.3751 24.9375C44.3282 22.8711 45.754 21.3476 47.9688 20.4062C48.4962 20.2343 48.7813 19.6679 48.6094 19.1406C48.4376 18.6133 47.8712 18.3281 47.3438 18.5C47.2891 18.5156 47.2383 18.539 47.1876 18.5625C44.5118 19.6992 42.6797 21.7109 41.5626 24.125C41.461 24.3476 41.3712 24.582 41.2813 24.8125C41.2071 24.8242 41.1329 24.8476 41.0626 24.875C40.3438 25.1523 39.8868 25.0937 39.2501 24.25C39.0899 24.039 38.9376 23.4765 39.0938 22.6875C39.2501 21.8984 39.7032 20.9336 40.4376 20.0312C42.6016 17.3672 47.4024 17.1289 49.9376 17.0937ZM28.0626 32C33.211 32.0742 35.4688 35.1601 35.7188 36.9062C35.8751 37.9843 35.543 38.6054 34.9688 38.9375C32.004 36.8008 28.0157 35.3789 22.8751 34.7812C22.7696 34.7656 22.668 34.7656 22.5626 34.7812C22.0118 34.7968 21.5782 35.2617 21.5938 35.8125C21.6094 36.3633 22.0743 36.7968 22.6251 36.7812C27.6915 37.3672 31.3751 38.7539 34.0313 40.75C34.2149 41.3554 34.0899 42.3711 33.3438 43.375C32.5079 44.5 30.9844 45.5429 28.6563 45.875C26.6876 46.1562 25.3282 45.7539 24.1876 44.9687C23.0469 44.1836 22.1368 42.9765 21.3438 41.5937C20.5508 40.2109 19.9063 38.6836 19.1876 37.3437C18.7735 36.5703 18.2813 35.8828 17.7501 35.2812C20.7813 33.625 23.543 32.4687 25.6876 32.1562C26.543 32.0312 27.3282 31.9883 28.0626 32ZM49.7813 40C51.9805 40 53.4727 40.6914 54.6251 41.625C55.5469 42.375 56.1915 43.2968 56.7188 44.1875C56.4766 44.4101 56.2266 44.5859 55.9688 44.8437C55.4454 45.3711 54.8594 45.9492 54.2188 46.4687C52.9376 47.5039 51.5313 48.2422 49.6563 47.9062C49.6446 47.9062 49.6368 47.9062 49.6251 47.9062C48.2618 47.664 47.6993 46.9062 47.4376 46.0312C47.2188 45.3008 47.4141 44.5547 47.5313 44.2812C49.0665 44.039 50.9883 44.082 53.4063 44.4687C53.7735 44.5586 54.1563 44.4336 54.4024 44.1484C54.6485 43.8633 54.711 43.4609 54.5665 43.1133C54.4219 42.7656 54.0938 42.5273 53.7188 42.5C51.2774 42.1093 49.1719 42.0351 47.4063 42.2812C47.3712 42.2851 47.3477 42.3086 47.3126 42.3125C47.0547 41.9687 46.9376 41.6367 47.0313 41.0625C47.0743 40.8086 47.1758 40.6289 47.5938 40.4062C48.0118 40.1836 48.7657 40 49.7813 40Z" fill="#2FB945"/>
</g>
<defs>
<clipPath id="clip0_1_810">
<rect width="50" height="50" fill="white" transform="translate(15 15)"/>
</clipPath>
</defs>
</svg>
