<svg width="80" height="80" viewBox="0 0 80 80" fill="none" xmlns="http://www.w3.org/2000/svg">
<rect width="80" height="80" rx="16" fill="#2FB945" fill-opacity="0.16"/>
<g clip-path="url(#clip0_1_889)">
<path d="M44 15.8125C36.8007 15.8125 29.4218 18.0078 23.9687 24.9687C18.5156 31.9297 15 43.4726 15 62C14.9961 62.2929 15.1211 62.5742 15.3476 62.7695C15.5703 62.9609 15.8632 63.0469 16.1562 63C16.1562 63 21.9609 62 33 62C33.0195 62 33.0429 62 33.0625 62C35.0078 63.8086 37.2929 65 40 65C42.7109 65 45.1836 63.8281 47.3125 62C47.3242 62 47.332 62 47.3437 62C47.3945 62.0039 47.4492 62.0039 47.5 62C58.3398 62 63.8125 63 63.8125 63C64.1093 63.0547 64.414 62.9765 64.6445 62.7812C64.875 62.5898 65.0039 62.3008 65 62C65 57.0429 64.5625 53.5508 64.125 51.2812C63.8086 49.6445 63.5351 48.8203 63.375 48.375C63.7656 47.664 64 46.8633 64 46V43C64 41.3867 63.1992 39.9492 62 39.0312C61.9453 33.5 60.2929 28.5469 57.375 24.9375C54.5664 21.4648 50.5195 19.3203 45.7812 19.0937L44.9687 16.5C44.832 16.082 44.4375 15.8047 44 15.8125ZM43.2812 17.875L44.0312 20.3125C44.1679 20.7304 44.5625 21.0078 45 21C49.5078 21 53.1797 22.9336 55.8125 26.1875C58.2382 29.1875 59.7461 33.3476 59.9687 38.0937C59.6523 38.0312 59.332 38 59 38H57C56.9687 38 56.9375 38 56.9062 38C56.3906 38.0469 55.9961 38.4804 56 39V40.8125C55.4726 40.5586 54.9609 40.4453 54.5937 40.4062C53.3945 38.9062 48.3984 32.6015 46 26.5C45.8007 26.1015 45.5 25.8047 45 25.9062C44.6015 25.9062 44.1953 26.1953 44.0937 26.5937C43.0937 30.1953 34.789 40.707 26.1875 40.9062C25.6875 40.8047 24.5078 40.6054 23.4062 41.4062C22.4062 42.207 22 43.3125 22 44.8125C22 47.1133 23.4882 49 25.6875 49.5C27.0195 52.9804 28.8086 56.9765 31.2187 60.0312C22.8203 60.1094 18.3945 60.6797 17.0625 60.875C17.2148 43.3359 20.5976 32.5117 25.5312 26.2187C30.3984 20.0078 36.7382 18.0156 43.2812 17.875ZM45 29.4062C48 35.8047 52.9882 41.6992 53.1875 42C53.3867 42.1992 53.6992 42.4062 54 42.4062C54 42.4062 55.4257 42.4258 56 43.625V46C56 47.3008 53.5 47.5937 53.5 47.5937C53.1015 47.5937 52.6953 48.0078 52.5937 48.4062C52.0937 50.707 51.289 52.8984 50.1875 55H52.4062C53.207 53.1992 53.914 51.3008 54.3125 49.5C54.9218 49.3711 55.4804 49.1484 56 48.875V50C56 50.5508 56.4492 51 57 51H58C58 53.7539 55.7539 56 53 56H44.8125C44.3945 54.8437 43.2929 54 42 54H40C38.3554 54 37 55.3554 37 57C37 58.6445 38.3554 60 40 60H42C43.2929 60 44.3945 59.1562 44.8125 58H53C56.8437 58 60 54.8437 60 51V50.9062C60.6718 50.7656 61.2968 50.5039 61.8437 50.125C61.9492 50.539 62.0351 51.0312 62.1562 51.6562C62.5312 53.5898 62.9023 56.7031 62.9687 60.8437C61.664 60.6445 57.4531 60.1054 49.2812 60.0312C49.5664 59.6953 49.8281 59.3594 50.0937 59H47.5C45.3984 61.3984 42.8007 63 40 63C35.1992 63 31.1132 58.1875 27.3125 48.1875C27.2109 47.789 26.8007 47.5937 26.5 47.5937C25.1015 47.4922 24 46.3125 24 44.8125C24 44.2109 24.1015 43.3945 24.5 43.0937C24.8984 42.7929 25.6875 42.9062 25.6875 42.9062H26C34.3007 42.9062 42.1992 34.707 45 29.4062ZM58 40H59C60.6562 40 62 41.3437 62 43V46C62 46.5976 61.832 47.1562 61.5312 47.625C61.4687 47.6914 61.4179 47.7656 61.375 47.8437C60.8242 48.5508 59.9609 49 59 49H58V43.7812C58.0703 43.582 58.082 43.3437 58 43.0937V40ZM40 56H42C42.5547 56 43 56.4453 43 57C43 57.5547 42.5547 58 42 58H40C39.4453 58 39 57.5547 39 57C39 56.4453 39.4453 56 40 56Z" fill="#2FB945"/>
</g>
<defs>
<clipPath id="clip0_1_889">
<rect width="50" height="50" fill="white" transform="translate(15 15)"/>
</clipPath>
</defs>
</svg>
