<svg width="80" height="80" viewBox="0 0 80 80" fill="none" xmlns="http://www.w3.org/2000/svg">
<rect width="80" height="80" rx="16" fill="#2FB945" fill-opacity="0.16"/>
<path d="M52 19C52 19 47.7841 18.9083 44.7695 21.2051C42.0768 23.2568 42.0071 27.0028 42.0078 28.627C41.5388 29.16 40.3431 30.6732 39.5781 33.1777C39.1869 32.2829 38.7738 31.5862 38.3945 31.0723L38.4551 30.9102C38.4622 30.8902 38.4687 30.87 38.4746 30.8496C38.6981 30.0986 38.875 29.0754 38.875 27.6875C38.875 26.5772 38.6268 25.3768 37.8594 24.3711C36.1358 22.1131 33.6614 21.31 31.6172 21.0723C29.573 20.8345 27.959 21.1621 27.959 21.1621C27.7615 21.1995 27.5798 21.2955 27.4376 21.4376C27.2955 21.5798 27.1995 21.7615 27.1621 21.959C27.1621 21.959 25.855 28.4122 30.3711 31.8594C31.3768 32.6269 32.5772 32.875 33.6875 32.875C35.0753 32.875 36.0985 32.6981 36.8496 32.4746C36.87 32.4688 36.8902 32.4622 36.9102 32.4551L36.9219 32.4512C37.6591 33.511 38.6326 35.5247 38.9141 39H19V41H39H41H61V39H41V37C41 33.062 42.8918 30.6399 43.4629 29.9902C45.1293 29.9878 48.7759 29.8802 50.7949 27.2305C53.0917 24.2159 53 20 53 20C53 19.7348 52.8946 19.4805 52.7071 19.2929C52.5195 19.1054 52.2652 19 52 19ZM50.8633 21.1367C50.7508 22.3292 50.4625 24.3691 49.2051 26.0195C48.1014 27.468 45.7479 27.7819 44.1191 27.8809C44.2181 26.2521 44.5321 23.8986 45.9805 22.7949C47.6309 21.5375 49.6708 21.2492 50.8633 21.1367ZM30.5371 23.0274C30.7661 23.036 31.0291 23.0562 31.3359 23.0918C33 23.285 34.9841 23.9 36.2695 25.584C36.6941 26.1403 36.875 26.8738 36.875 27.6875C36.875 28.9012 36.7241 29.7128 36.5605 30.2656L36.4805 30.4805L36.2656 30.5606C35.7128 30.7241 34.9012 30.875 33.6875 30.875C32.8738 30.875 32.1403 30.6941 31.584 30.2695C28.6578 28.036 28.9871 24.2192 29.1172 23.1172C29.4681 23.0758 29.8501 23.0015 30.5371 23.0274ZM20 43C19.7348 43 19.4804 43.1054 19.2929 43.2929C19.1054 43.4804 19 43.7348 19 44C19 44.2652 19.1054 44.5196 19.2929 44.7071C19.4804 44.8947 19.7348 45 20 45C20.2652 45 20.5196 44.8947 20.7071 44.7071C20.8946 44.5196 21 44.2652 21 44C21 43.7348 20.8946 43.4804 20.7071 43.2929C20.5196 43.1054 20.2652 43 20 43ZM28 43C27.7348 43 27.4804 43.1054 27.2929 43.2929C27.1054 43.4804 27 43.7348 27 44C27 44.2652 27.1054 44.5196 27.2929 44.7071C27.4804 44.8947 27.7348 45 28 45C28.2652 45 28.5196 44.8947 28.7071 44.7071C28.8946 44.5196 29 44.2652 29 44C29 43.7348 28.8946 43.4804 28.7071 43.2929C28.5196 43.1054 28.2652 43 28 43ZM36 43C35.7348 43 35.4804 43.1054 35.2929 43.2929C35.1054 43.4804 35 43.7348 35 44C35 44.2652 35.1054 44.5196 35.2929 44.7071C35.4804 44.8947 35.7348 45 36 45C36.2652 45 36.5196 44.8947 36.7071 44.7071C36.8946 44.5196 37 44.2652 37 44C37 43.7348 36.8946 43.4804 36.7071 43.2929C36.5196 43.1054 36.2652 43 36 43ZM44 43C43.7348 43 43.4804 43.1054 43.2929 43.2929C43.1054 43.4804 43 43.7348 43 44C43 44.2652 43.1054 44.5196 43.2929 44.7071C43.4804 44.8947 43.7348 45 44 45C44.2652 45 44.5196 44.8947 44.7071 44.7071C44.8946 44.5196 45 44.2652 45 44C45 43.7348 44.8946 43.4804 44.7071 43.2929C44.5196 43.1054 44.2652 43 44 43ZM52 43C51.7348 43 51.4804 43.1054 51.2929 43.2929C51.1054 43.4804 51 43.7348 51 44C51 44.2652 51.1054 44.5196 51.2929 44.7071C51.4804 44.8947 51.7348 45 52 45C52.2652 45 52.5196 44.8947 52.7071 44.7071C52.8946 44.5196 53 44.2652 53 44C53 43.7348 52.8946 43.4804 52.7071 43.2929C52.5196 43.1054 52.2652 43 52 43ZM60 43C59.7348 43 59.4804 43.1054 59.2929 43.2929C59.1054 43.4804 59 43.7348 59 44C59 44.2652 59.1054 44.5196 59.2929 44.7071C59.4804 44.8947 59.7348 45 60 45C60.2652 45 60.5196 44.8947 60.7071 44.7071C60.8946 44.5196 61 44.2652 61 44C61 43.7348 60.8946 43.4804 60.7071 43.2929C60.5196 43.1054 60.2652 43 60 43ZM24 47C23.7348 47 23.4804 47.1054 23.2929 47.2929C23.1054 47.4804 23 47.7348 23 48C23 48.2652 23.1054 48.5196 23.2929 48.7071C23.4804 48.8947 23.7348 49 24 49C24.2652 49 24.5196 48.8947 24.7071 48.7071C24.8946 48.5196 25 48.2652 25 48C25 47.7348 24.8946 47.4804 24.7071 47.2929C24.5196 47.1054 24.2652 47 24 47ZM32 47C31.7348 47 31.4804 47.1054 31.2929 47.2929C31.1054 47.4804 31 47.7348 31 48C31 48.2652 31.1054 48.5196 31.2929 48.7071C31.4804 48.8947 31.7348 49 32 49C32.2652 49 32.5196 48.8947 32.7071 48.7071C32.8946 48.5196 33 48.2652 33 48C33 47.7348 32.8946 47.4804 32.7071 47.2929C32.5196 47.1054 32.2652 47 32 47ZM40 47C39.7348 47 39.4804 47.1054 39.2929 47.2929C39.1054 47.4804 39 47.7348 39 48C39 48.2652 39.1054 48.5196 39.2929 48.7071C39.4804 48.8947 39.7348 49 40 49C40.2652 49 40.5196 48.8947 40.7071 48.7071C40.8946 48.5196 41 48.2652 41 48C41 47.7348 40.8946 47.4804 40.7071 47.2929C40.5196 47.1054 40.2652 47 40 47ZM48 47C47.7348 47 47.4804 47.1054 47.2929 47.2929C47.1054 47.4804 47 47.7348 47 48C47 48.2652 47.1054 48.5196 47.2929 48.7071C47.4804 48.8947 47.7348 49 48 49C48.2652 49 48.5196 48.8947 48.7071 48.7071C48.8946 48.5196 49 48.2652 49 48C49 47.7348 48.8946 47.4804 48.7071 47.2929C48.5196 47.1054 48.2652 47 48 47ZM56 47C55.7348 47 55.4804 47.1054 55.2929 47.2929C55.1054 47.4804 55 47.7348 55 48C55 48.2652 55.1054 48.5196 55.2929 48.7071C55.4804 48.8947 55.7348 49 56 49C56.2652 49 56.5196 48.8947 56.7071 48.7071C56.8946 48.5196 57 48.2652 57 48C57 47.7348 56.8946 47.4804 56.7071 47.2929C56.5196 47.1054 56.2652 47 56 47ZM20 51C19.7348 51 19.4804 51.1054 19.2929 51.2929C19.1054 51.4804 19 51.7348 19 52C19 52.2652 19.1054 52.5196 19.2929 52.7071C19.4804 52.8947 19.7348 53 20 53C20.2652 53 20.5196 52.8947 20.7071 52.7071C20.8946 52.5196 21 52.2652 21 52C21 51.7348 20.8946 51.4804 20.7071 51.2929C20.5196 51.1054 20.2652 51 20 51ZM28 51C27.7348 51 27.4804 51.1054 27.2929 51.2929C27.1054 51.4804 27 51.7348 27 52C27 52.2652 27.1054 52.5196 27.2929 52.7071C27.4804 52.8947 27.7348 53 28 53C28.2652 53 28.5196 52.8947 28.7071 52.7071C28.8946 52.5196 29 52.2652 29 52C29 51.7348 28.8946 51.4804 28.7071 51.2929C28.5196 51.1054 28.2652 51 28 51ZM36 51C35.7348 51 35.4804 51.1054 35.2929 51.2929C35.1054 51.4804 35 51.7348 35 52C35 52.2652 35.1054 52.5196 35.2929 52.7071C35.4804 52.8947 35.7348 53 36 53C36.2652 53 36.5196 52.8947 36.7071 52.7071C36.8946 52.5196 37 52.2652 37 52C37 51.7348 36.8946 51.4804 36.7071 51.2929C36.5196 51.1054 36.2652 51 36 51ZM44 51C43.7348 51 43.4804 51.1054 43.2929 51.2929C43.1054 51.4804 43 51.7348 43 52C43 52.2652 43.1054 52.5196 43.2929 52.7071C43.4804 52.8947 43.7348 53 44 53C44.2652 53 44.5196 52.8947 44.7071 52.7071C44.8946 52.5196 45 52.2652 45 52C45 51.7348 44.8946 51.4804 44.7071 51.2929C44.5196 51.1054 44.2652 51 44 51ZM52 51C51.7348 51 51.4804 51.1054 51.2929 51.2929C51.1054 51.4804 51 51.7348 51 52C51 52.2652 51.1054 52.5196 51.2929 52.7071C51.4804 52.8947 51.7348 53 52 53C52.2652 53 52.5196 52.8947 52.7071 52.7071C52.8946 52.5196 53 52.2652 53 52C53 51.7348 52.8946 51.4804 52.7071 51.2929C52.5196 51.1054 52.2652 51 52 51ZM60 51C59.7348 51 59.4804 51.1054 59.2929 51.2929C59.1054 51.4804 59 51.7348 59 52C59 52.2652 59.1054 52.5196 59.2929 52.7071C59.4804 52.8947 59.7348 53 60 53C60.2652 53 60.5196 52.8947 60.7071 52.7071C60.8946 52.5196 61 52.2652 61 52C61 51.7348 60.8946 51.4804 60.7071 51.2929C60.5196 51.1054 60.2652 51 60 51ZM24 55C23.7348 55 23.4804 55.1054 23.2929 55.2929C23.1054 55.4804 23 55.7348 23 56C23 56.2652 23.1054 56.5196 23.2929 56.7071C23.4804 56.8947 23.7348 57 24 57C24.2652 57 24.5196 56.8947 24.7071 56.7071C24.8946 56.5196 25 56.2652 25 56C25 55.7348 24.8946 55.4804 24.7071 55.2929C24.5196 55.1054 24.2652 55 24 55ZM32 55C31.7348 55 31.4804 55.1054 31.2929 55.2929C31.1054 55.4804 31 55.7348 31 56C31 56.2652 31.1054 56.5196 31.2929 56.7071C31.4804 56.8947 31.7348 57 32 57C32.2652 57 32.5196 56.8947 32.7071 56.7071C32.8946 56.5196 33 56.2652 33 56C33 55.7348 32.8946 55.4804 32.7071 55.2929C32.5196 55.1054 32.2652 55 32 55ZM40 55C39.7348 55 39.4804 55.1054 39.2929 55.2929C39.1054 55.4804 39 55.7348 39 56C39 56.2652 39.1054 56.5196 39.2929 56.7071C39.4804 56.8947 39.7348 57 40 57C40.2652 57 40.5196 56.8947 40.7071 56.7071C40.8946 56.5196 41 56.2652 41 56C41 55.7348 40.8946 55.4804 40.7071 55.2929C40.5196 55.1054 40.2652 55 40 55ZM48 55C47.7348 55 47.4804 55.1054 47.2929 55.2929C47.1054 55.4804 47 55.7348 47 56C47 56.2652 47.1054 56.5196 47.2929 56.7071C47.4804 56.8947 47.7348 57 48 57C48.2652 57 48.5196 56.8947 48.7071 56.7071C48.8946 56.5196 49 56.2652 49 56C49 55.7348 48.8946 55.4804 48.7071 55.2929C48.5196 55.1054 48.2652 55 48 55ZM56 55C55.7348 55 55.4804 55.1054 55.2929 55.2929C55.1054 55.4804 55 55.7348 55 56C55 56.2652 55.1054 56.5196 55.2929 56.7071C55.4804 56.8947 55.7348 57 56 57C56.2652 57 56.5196 56.8947 56.7071 56.7071C56.8946 56.5196 57 56.2652 57 56C57 55.7348 56.8946 55.4804 56.7071 55.2929C56.5196 55.1054 56.2652 55 56 55ZM20 59C19.7348 59 19.4804 59.1054 19.2929 59.2929C19.1054 59.4804 19 59.7348 19 60C19 60.2652 19.1054 60.5196 19.2929 60.7071C19.4804 60.8947 19.7348 61 20 61C20.2652 61 20.5196 60.8947 20.7071 60.7071C20.8946 60.5196 21 60.2652 21 60C21 59.7348 20.8946 59.4804 20.7071 59.2929C20.5196 59.1054 20.2652 59 20 59ZM28 59C27.7348 59 27.4804 59.1054 27.2929 59.2929C27.1054 59.4804 27 59.7348 27 60C27 60.2652 27.1054 60.5196 27.2929 60.7071C27.4804 60.8947 27.7348 61 28 61C28.2652 61 28.5196 60.8947 28.7071 60.7071C28.8946 60.5196 29 60.2652 29 60C29 59.7348 28.8946 59.4804 28.7071 59.2929C28.5196 59.1054 28.2652 59 28 59ZM36 59C35.7348 59 35.4804 59.1054 35.2929 59.2929C35.1054 59.4804 35 59.7348 35 60C35 60.2652 35.1054 60.5196 35.2929 60.7071C35.4804 60.8947 35.7348 61 36 61C36.2652 61 36.5196 60.8947 36.7071 60.7071C36.8946 60.5196 37 60.2652 37 60C37 59.7348 36.8946 59.4804 36.7071 59.2929C36.5196 59.1054 36.2652 59 36 59ZM44 59C43.7348 59 43.4804 59.1054 43.2929 59.2929C43.1054 59.4804 43 59.7348 43 60C43 60.2652 43.1054 60.5196 43.2929 60.7071C43.4804 60.8947 43.7348 61 44 61C44.2652 61 44.5196 60.8947 44.7071 60.7071C44.8946 60.5196 45 60.2652 45 60C45 59.7348 44.8946 59.4804 44.7071 59.2929C44.5196 59.1054 44.2652 59 44 59ZM52 59C51.7348 59 51.4804 59.1054 51.2929 59.2929C51.1054 59.4804 51 59.7348 51 60C51 60.2652 51.1054 60.5196 51.2929 60.7071C51.4804 60.8947 51.7348 61 52 61C52.2652 61 52.5196 60.8947 52.7071 60.7071C52.8946 60.5196 53 60.2652 53 60C53 59.7348 52.8946 59.4804 52.7071 59.2929C52.5196 59.1054 52.2652 59 52 59ZM60 59C59.7348 59 59.4804 59.1054 59.2929 59.2929C59.1054 59.4804 59 59.7348 59 60C59 60.2652 59.1054 60.5196 59.2929 60.7071C59.4804 60.8947 59.7348 61 60 61C60.2652 61 60.5196 60.8947 60.7071 60.7071C60.8946 60.5196 61 60.2652 61 60C61 59.7348 60.8946 59.4804 60.7071 59.2929C60.5196 59.1054 60.2652 59 60 59Z" fill="#2FB945"/>
</svg>
